<svg viewBox="0 0 16.933 16.933" xmlns="http://www.w3.org/2000/svg"><path d="M7.492.687c-.26.13-.356.324-.426.483-.07.159-.113.283-.234.422-.121.138-.329.299-.74.465-.412.166-.672.193-.856.178-.184-.016-.302-.078-.463-.143-.193-.079-.392-.13-.645-.05-.252.078-.504.26-.855.604-.35.344-.54.592-.623.842-.088.264-.022.483.041.645.063.161.122.28.135.463.012.182-.02.44-.194.848-.173.407-.336.608-.478.728-.142.12-.273.166-.436.24-.196.09-.369.204-.488.448-.119.243-.167.564-.172 1.078.005.513.053.834.172 1.078.13.265.325.373.488.447.163.074.294.12.436.24.142.12.305.321.478.728.174.408.206.666.194.848-.013.183-.072.302-.135.463-.071.183-.124.394-.041.645.079.237.272.498.623.842.351.343.618.531.855.605.277.086.485.015.645-.05.161-.066.279-.128.463-.143.175-.016.444.011.856.177.234.094.399.187.523.275v.46c0 .435.35.793.793.793v.265c0 .436.353.793.795.793h.527a.794.794 0 0 0 .796-.793v-.265a.792.792 0 0 0 .793-.793v-.46c.123-.088.289-.18.523-.275.412-.166.68-.193.855-.177.184.015.302.077.463.142.16.066.369.137.645.05.237-.073.504-.26.855-.604s.545-.605.623-.842c.084-.25.03-.462-.041-.645-.063-.16-.122-.28-.134-.463-.013-.182.02-.44.193-.848.173-.407.336-.608.478-.728.143-.12.273-.166.436-.24.163-.074.358-.182.488-.448.119-.243.168-.564.172-1.077-.004-.514-.053-.835-.172-1.078-.12-.244-.292-.359-.488-.448-.163-.074-.293-.12-.436-.24-.142-.12-.305-.321-.478-.728s-.206-.666-.193-.848c.012-.183.07-.302.134-.463.063-.162.13-.381.041-.645-.083-.25-.272-.498-.623-.842-.35-.343-.603-.526-.855-.605-.252-.078-.452-.028-.645.05-.16.066-.279.128-.463.143-.183.016-.443-.011-.855-.177-.412-.166-.62-.327-.74-.465-.121-.139-.165-.263-.235-.422-.07-.159-.166-.353-.426-.483C9.227.58 8.946.534 8.467.53c-.48.005-.76.051-.975.158Zm1.713.473c.084.042.122.09.18.223.058.132.132.343.318.556.186.213.476.42.941.608.466.188.816.239 1.098.215.282-.025.485-.125.62-.18.1-.04.172-.07.284-.035.113.035.319.16.643.477.324.317.452.51.492.632.03.088.02.149-.033.283-.053.135-.148.338-.168.62-.02.281.036.63.233 1.091.196.461.41.744.626.926.216.183.426.257.557.317.091.041.172.08.23.199.059.118.116.372.12.846-.004.473-.058.72-.12.845-.058.12-.141.159-.23.2-.13.059-.34.133-.557.316-.215.182-.43.465-.626.926-.197.46-.253.81-.233 1.092.02.281.115.484.168.619.037.094.07.172.033.283-.037.11-.168.315-.492.632-.324.318-.52.441-.643.479-.089.028-.15.017-.284-.037-.135-.055-.338-.155-.62-.18-.282-.024-.632.027-1.098.215-.121.049-.227.1-.325.15v-.513c.35 0 .349-.522.004-.53.017-.18.11-.373.276-.603.184-.255.448-.541.72-.873.541-.664 1.116-1.521 1.116-2.785 0-2.154-1.773-3.903-3.968-3.94-2.195.037-3.97 1.786-3.97 3.94 0 1.264.576 2.121 1.118 2.785.271.332.535.618.719.873.166.23.258.425.274.604-.345.007-.344.53.007.53v.512a3.704 3.704 0 0 0-.326-.15c-.466-.188-.816-.239-1.098-.215-.282.025-.485.125-.62.18-.133.054-.195.065-.284.037-.122-.038-.319-.161-.643-.479-.324-.317-.455-.521-.492-.632-.037-.11-.003-.19.033-.283.053-.135.149-.338.168-.62.02-.281-.036-.63-.232-1.091-.197-.461-.411-.744-.627-.926-.216-.183-.426-.257-.557-.317-.089-.04-.172-.08-.23-.199-.062-.125-.115-.372-.12-.845.005-.474.062-.728.12-.846.058-.12.14-.158.23-.2.131-.059.341-.133.557-.316.216-.182.43-.465.627-.926.196-.46.252-.81.232-1.092-.02-.281-.115-.484-.168-.619-.052-.134-.062-.195-.033-.283.04-.122.168-.315.492-.632.324-.318.53-.442.643-.477.113-.035.184-.006.285.035.134.055.337.155.619.18.282.024.632-.027 1.098-.215.466-.187.755-.395.941-.608.186-.213.26-.424.318-.556.059-.132.097-.181.18-.223.1-.05.326-.098.739-.1.412.002.638.05.738.1zm-.738 3.605c1.912.038 3.44 1.549 3.44 3.409 0 1.072-.482 1.82-.999 2.451-.258.316-.525.602-.738.896-.201.278-.362.576-.38.914H8.73v-1.454l.85-.848a.265.265 0 1 0-.375-.375l-.738.736-.739-.736a.265.265 0 1 0-.375.375l.848.848v1.454h-1.06c-.017-.338-.177-.636-.378-.914-.212-.294-.48-.58-.738-.896-.516-.632-.998-1.379-.998-2.451 0-1.86 1.528-3.37 3.44-3.409zm0 .698c-.353 0-.353.53 0 .53.788 0 1.516.418 1.91 1.097.195.312.63.024.457-.266a2.736 2.736 0 0 0-2.367-1.361Zm2.647 2.21a.265.265 0 1 0-.003.53.265.265 0 0 0 .003-.53z" style="line-height:normal;font-variant-ligatures:normal;font-variant-position:normal;font-variant-caps:normal;font-variant-numeric:normal;font-variant-alternates:normal;font-feature-settings:normal;text-indent:0;text-align:start;text-decoration-line:none;text-decoration-style:solid;text-decoration-color:#000;text-transform:none;text-orientation:mixed;white-space:normal;shape-padding:0;isolation:auto;mix-blend-mode:normal;solid-color:#000;solid-opacity:1" color="#000000" font-style="normal" font-variant="normal" font-weight="400" font-stretch="normal" font-size="medium" font-family="sans-serif" text-decoration="none" letter-spacing="normal" word-spacing="normal" writing-mode="lr-tb" direction="ltr" dominant-baseline="auto" baseline-shift="baseline" text-anchor="start" clip-rule="nonzero" display="inline" overflow="visible" visibility="visible" opacity="1" color-interpolation="sRGB" color-interpolation-filters="linearRGB" vector-effect="none" fill="#f6b314" fill-opacity="1" fill-rule="nonzero" stroke="none" stroke-width=".52916801" stroke-linecap="butt" stroke-linejoin="round" stroke-miterlimit="4" stroke-dasharray="none" stroke-dashoffset="0" stroke-opacity="1" color-rendering="auto" image-rendering="auto" shape-rendering="auto" text-rendering="auto" enable-background="accumulate" class="fill-000000"></path></svg>