<svg viewBox="0 0 512 512" xml:space="preserve" xmlns="http://www.w3.org/2000/svg"><path d="M341.277 254.455h-9.881v-22.941c22.117-9.858 37.58-32.038 37.58-57.773v-40.303c0-21.519-10.813-40.551-27.281-51.977-4.375-15.745-18.83-27.338-35.949-27.338s-31.574 11.593-35.949 27.338c-16.469 11.426-27.283 30.458-27.283 51.977v40.303c0 25.735 15.464 47.915 37.582 57.773v22.941h-9.881c-44.692 0-81.05 36.359-81.05 81.05v12.933h-16.059v-52.211h-6a52.666 52.666 0 0 0-18.5 3.343v-3.343h-6c-29.188 0-52.933 23.745-52.933 52.933l.019 108.718h98.729c3.279 0 6.521-.16 9.724-.461h224.182V335.505c-.001-44.691-36.358-81.05-81.05-81.05zm1.227-156.65c7.881 8.128 13.102 18.845 14.234 30.741-6.824-4.307-15.959-7.471-25.996-9.431 6.063-5.48 10.313-12.921 11.762-21.31zm-61.94-8.956a25.08 25.08 0 0 1 2.072-7.724 25.446 25.446 0 0 1 6.367-8.652c4.467-3.947 10.328-6.35 16.742-6.35s12.275 2.402 16.74 6.35a25.461 25.461 0 0 1 6.369 8.652 25.072 25.072 0 0 1 2.203 10.312c0 13.958-11.355 25.313-25.313 25.313-13.959 0-25.314-11.355-25.314-25.313.002-.874.047-1.737.134-2.588zm-11.578 8.956c1.451 8.39 5.701 15.83 11.764 21.311-10.037 1.96-19.172 5.124-25.997 9.431 1.133-11.898 6.352-22.614 14.233-30.742zm-14.472 75.935v-26.883c0-7.383 19.958-18.107 51.232-18.107s51.23 10.725 51.23 18.107v26.883c0 18.906-10.303 35.441-25.58 44.318a50.947 50.947 0 0 1-6 2.987 50.46 50.46 0 0 1-6 2.064c-4.35 1.204-8.924 1.861-13.65 1.861s-9.301-.657-13.65-1.861a50.64 50.64 0 0 1-6-2.064 50.947 50.947 0 0 1-6-2.987c-15.28-8.876-25.582-25.412-25.582-44.318zm64.882 61.731v18.984h-27.301v-18.984c4.398.972 8.963 1.501 13.65 1.501s9.253-.53 13.651-1.501zm-170.79 77.186a40.615 40.615 0 0 1 12.5-3.993v39.773h-12.5v-35.78zm46.559 132.947a92.978 92.978 0 0 1-6 .255c-.249.002-.494.019-.744.019h-86.729l-.019-96.718c0-18.878 12.85-34.804 30.26-39.511a40.561 40.561 0 0 1 4.673-.984V360.438h111.976V391.8h23.266c-12.646 28.13-39.094 48.754-70.683 53.179-1.98.277-3.983.476-6 .625zm65.417-65.804v-19.362h19.084a90.948 90.948 0 0 1-3.41 19.362h-15.674zm149.744 65.616H237.605c21.454-11.644 38.346-30.656 47.27-53.616h.566v-1.489a102.938 102.938 0 0 0 6.418-35.873v-6h-90.695v-12.933c0-38.074 30.976-69.05 69.05-69.05h71.063c38.074 0 69.049 30.976 69.049 69.05v109.911z" fill="#f6b314" class="fill-000000"></path><path d="M369.627 306.974h-42.889v19.188H307.55v42.888h19.188v19.188h42.889V369.05h19.188v-42.888h-19.188v-19.188zm7.187 31.187v18.888h-19.188v19.188h-18.889v-19.188h-19.188v-18.888h19.188v-19.188h18.889v19.188h19.188zM140.101 385.522v5.942h16V373.099h-16zM290.539 206.182c4.463 2.637 9.66 4.157 15.207 4.157s10.744-1.521 15.207-4.157c8.834-5.223 14.775-14.841 14.775-25.826h-12c0 9.916-8.066 17.983-17.982 17.983s-17.984-8.067-17.984-17.983h-12c0 10.985 5.943 20.603 14.777 25.826z" fill="#f6b314" class="fill-000000"></path></svg>